<svg xmlns="http://www.w3.org/2000/svg" viewBox="0 0 473 473.1"><circle fill="#77b7bf" cx="236.5" cy="236.5" r="236.5"/><path fill-rule="evenodd" clip-rule="evenodd" fill="#ffe9d5" d="M236.8 12c-103-2-175 86.1-175 185 0 45.5 19.8 79 47.4 110.5 32.4 37.1 115.6 63.5 127.6 62.5s94.6-25.6 127.1-63c27.4-31.5 47.9-64.8 47.9-110 0-98.9-72-183-175-185z"/><path fill-rule="evenodd" clip-rule="evenodd" fill="#313131" d="M236.8 3c-175-2-175 164-175 164s89.4 6.5 177 6c85.9-.5 170-8 170-8s3-160-172-162z"/><path fill-rule="evenodd" clip-rule="evenodd" fill="#313131" d="M92.8 239c.7-35.9 6-75 6-75h-37s-7 43 3 86 51 66 51 66-23.8-37.1-23-77zM408.8 164h-37s5.3 39.1 6 75c.8 39.9-23 77-23 77s41-23 51-66 3-86 3-86zM119.8 126h-18c-2 58 16 77 16 77s-4-32-4-43 6-34 6-34z"/><path fill-rule="evenodd" clip-rule="evenodd" fill="#313131" d="M124.8 155c-.6-11 6.9-27.5 6.9-27.5l-18 1c1.2 58 22.1 70.5 22.1 70.5s-10.4-33-11-44z"/><path fill="#313131" d="M376.6 135l-17.8 2.6s0 .1.1.2l-6-.3s7.5 16.5 6.9 27.5c-.6 11-8 45-8 45s12.1-9.1 17.1-44.5c.3 1.2.5 2.4.7 3.4 1.6 10.4-3.9 41.1-3.9 41.1s21.1-20.5 10.9-75z"/><path fill-rule="evenodd" clip-rule="evenodd" fill="#f67887" d="M237.8 296c-9.2.8-19-3-19-3s5 36 19 35 16-38 16-38-7.7 5.3-16 6z"/><path fill-rule="evenodd" clip-rule="evenodd" d="M207.8 235s-16.6-9.6-33-9c-16.7.6-32.8 5.3-32.8 5.3l-3.2 9s18.8-7.2 37.5-7.4c18.8-.2 37.5 9 37.5 9l-6-6.9z"/><path fill-rule="evenodd" clip-rule="evenodd" d="M143.2 223.9c-3.1-6-4.5-8.9-4.5-8.9s1 3 1.2 9.3c.2 5.7 5.4 7.7 5.4 7.7l5.4-.7c.1 0-4.7-2.1-7.5-7.4zM152.2 223.9c-3.1-6-2.5-9.9-2.5-9.9s-2.3 3.7-2 10c.2 5.7 6.6 8 6.6 8l5.4-.7c.1 0-4.7-2.1-7.5-7.4zM333.6 231.3s-16.1-4.7-32.8-5.3c-16.4-.6-34 9-34 9l-5 7s18.7-9.2 37.5-9c18.7.2 37.5 7.4 37.5 7.4l-3.2-9.1z"/><path fill-rule="evenodd" clip-rule="evenodd" d="M332.3 223.9c-2.8 5.3-7.5 7.5-7.5 7.5l5.4.7s5.2-2 5.4-7.7c.3-6.3 1.2-9.3 1.2-9.3s-1.4 2.8-4.5 8.8zM325.8 214s.6 3.9-2.5 9.9c-2.8 5.3-7.5 7.5-7.5 7.5l5.4.7s6.4-2.3 6.6-8c.2-6.4-2-10.1-2-10.1z"/><g><path fill-rule="evenodd" clip-rule="evenodd" fill="#f67887" d="M377.8 112.7c-1.6.8-11.3 16.7-11.3 16.7s-17.4 9.9-18.6 12.1c-1.1 2.2.4 5.8 2.9 5.1 4.2-.8 16.8-13.8 16.8-13.8s-7.7 15-7 17.9c.8 2.9 2.6 3.5 4.4 1.6 1.8-2 7-18.6 7-18.6s17-11.3 18.1-12.9.1-5.2-2.2-4.4-17.2 14.3-17.2 14.3 10.4-14.4 10.1-16.9c-.3-2.5-1.4-1.9-3-1.1z"/></g><g><path fill-rule="evenodd" clip-rule="evenodd" fill="#f67887" d="M391.3 129.8c-1.3.7-9.2 14-9.2 14s-14.2 8.3-15.2 10.2c-.9 1.9.3 4.9 2.4 4.3 3.4-.7 13.7-11.6 13.7-11.6s-6.3 12.6-5.7 15c.6 2.4 2.1 2.9 3.6 1.3 1.5-1.6 5.7-15.6 5.7-15.6s13.9-9.5 14.8-10.8c.9-1.3.1-4.4-1.8-3.7-1.9.7-14 12-14 12s8.5-12.1 8.2-14.2c-.3-2.1-1.2-1.6-2.5-.9z"/></g><g><path fill-rule="evenodd" clip-rule="evenodd" fill="#ffe9d5" d="M241.8 347h-10c-5.5 0-10 4.5-10 10v60c0 5.5 4.5 10 10 10h10c5.5 0 10-4.5 10-10v-60c0-5.5-4.5-10-10-10z"/><path fill-rule="evenodd" clip-rule="evenodd" fill="#ffe9d5" d="M337.8 434c0-7.5-6.6-15.4-20-20 0 0-37-8-83.5-8-45.5 0-82.5 7-82.5 7-12.2 4.3-18 14.5-18 20l-3.2 15s43.7 25 105.9 25 104.2-24.1 104.2-24.1l-2.9-14.9z"/><path fill-rule="evenodd" clip-rule="evenodd" fill="#f60000" d="M236.5 422l-75.4 38.7s33.6 12.4 75.4 12.4 73.6-11.7 73.6-11.7L236.5 422zM209.8 406.7s15 15.2 26.8 15.2c11.7 0 27.8-15.1 27.8-15.1s-16.7 9.2-28.2 9.2c-11.8.1-26.4-9.3-26.4-9.3z"/></g></svg>